<svg width="69" height="70" viewBox="0 0 69 70" fill="none" xmlns="http://www.w3.org/2000/svg">
<g filter="url(#filter0_d_19_96)">
<rect x="1.98804" y="0.987793" width="66" height="66" rx="33" fill="white" shape-rendering="crispEdges"/>
<rect x="2.48804" y="1.48779" width="65" height="65" rx="32.5" stroke="#EDEDED" shape-rendering="crispEdges"/>
<g clip-path="url(#clip0_19_96)">
<path d="M30.892 34.9878C29.6866 35.025 28.7008 35.5012 27.9344 36.4164H26.4389C25.8287 36.4164 25.3153 36.2657 24.8987 35.9644C24.482 35.663 24.2737 35.2222 24.2737 34.6418C24.2737 32.0153 24.735 30.7021 25.6576 30.7021C25.7023 30.7021 25.8641 30.7802 26.1431 30.9365C26.4221 31.0927 26.7848 31.2508 27.2313 31.4108C27.6777 31.5708 28.1204 31.6507 28.5594 31.6507C29.0579 31.6507 29.5527 31.5652 30.0438 31.394C30.0066 31.6693 29.988 31.9149 29.988 32.1306C29.988 33.1649 30.2893 34.1173 30.892 34.9878ZM42.8451 42.0972C42.8451 42.99 42.5735 43.695 42.0304 44.2121C41.4872 44.7292 40.7655 44.9878 39.8652 44.9878H30.1107C29.2104 44.9878 28.4887 44.7292 27.9456 44.2121C27.4024 43.695 27.1308 42.99 27.1308 42.0972C27.1308 41.7028 27.1438 41.3178 27.1699 40.942C27.1959 40.5663 27.248 40.1608 27.3261 39.7255C27.4043 39.2902 27.5028 38.8866 27.6219 38.5146C27.7409 38.1426 27.9009 37.7798 28.1018 37.4264C28.3027 37.073 28.5334 36.7716 28.7938 36.5224C29.0542 36.2731 29.3723 36.0741 29.748 35.9253C30.1238 35.7765 30.5386 35.7021 30.9924 35.7021C31.0668 35.7021 31.2268 35.7821 31.4723 35.942C31.7179 36.102 31.9895 36.2806 32.2871 36.4777C32.5847 36.6749 32.9828 36.8535 33.4813 37.0135C33.9798 37.1734 34.482 37.2534 34.988 37.2534C35.4939 37.2534 35.9962 37.1734 36.4947 37.0135C36.9932 36.8535 37.3912 36.6749 37.6889 36.4777C37.9865 36.2806 38.2581 36.102 38.5036 35.942C38.7491 35.7821 38.9091 35.7021 38.9835 35.7021C39.4374 35.7021 39.8522 35.7765 40.2279 35.9253C40.6037 36.0741 40.9217 36.2731 41.1822 36.5224C41.4426 36.7716 41.6732 37.073 41.8741 37.4264C42.075 37.7798 42.235 38.1426 42.354 38.5146C42.4731 38.8866 42.5717 39.2902 42.6498 39.7255C42.7279 40.1608 42.78 40.5663 42.806 40.942C42.8321 41.3178 42.8451 41.7028 42.8451 42.0972ZM30.5795 25.8248C30.5795 25.8248 30.719 25.9644 30.998 26.2434C31.277 26.5224 31.4165 27.0562 31.4165 27.8449C31.4165 28.6336 31.1375 29.307 30.5795 29.865C30.0214 30.4231 29.3481 30.7021 28.5594 30.7021C27.7707 30.7021 27.0973 30.4231 26.5393 29.865C25.9813 29.307 25.7023 28.6336 25.7023 27.8449C25.7023 27.0562 25.9813 26.3829 26.5393 25.8248C27.0973 25.2668 27.7707 24.9878 28.5594 24.9878C29.3481 24.9878 30.0214 25.2668 30.5795 25.8248ZM38.0181 29.1005C38.0181 29.1005 38.2274 29.3098 38.6459 29.7283C39.0644 30.1468 39.2737 30.9476 39.2737 32.1306C39.2737 33.3137 38.8552 34.3237 38.0181 35.1608C37.181 35.9978 36.171 36.4164 34.988 36.4164C33.8049 36.4164 32.7949 35.9978 31.9578 35.1608C31.1208 34.3237 30.7023 33.3137 30.7023 32.1306C30.7023 30.9476 31.1208 29.9376 31.9578 29.1005C32.7949 28.2635 33.8049 27.8449 34.988 27.8449C36.171 27.8449 37.181 28.2635 38.0181 29.1005ZM45.7023 34.6418C45.7023 35.2222 45.4939 35.663 45.0773 35.9644C44.6606 36.2657 44.1472 36.4164 43.5371 36.4164H42.0415C41.2752 35.5012 40.2893 35.025 39.084 34.9878C39.6866 34.1173 39.988 33.1649 39.988 32.1306C39.988 31.9149 39.9694 31.6693 39.9322 31.394C40.4232 31.5652 40.918 31.6507 41.4165 31.6507C41.8555 31.6507 42.2982 31.5708 42.7447 31.4108C43.1911 31.2508 43.5538 31.0927 43.8328 30.9365C44.1119 30.7802 44.2737 30.7021 44.3183 30.7021C45.2409 30.7021 45.7023 32.0153 45.7023 34.6418ZM43.4366 25.8248C43.4366 25.8248 43.5761 25.9644 43.8552 26.2434C44.1342 26.5224 44.2737 27.0562 44.2737 27.8449C44.2737 28.6336 43.9947 29.307 43.4366 29.865C42.8786 30.4231 42.2052 30.7021 41.4165 30.7021C40.6278 30.7021 39.9545 30.4231 39.3965 29.865C38.8384 29.307 38.5594 28.6336 38.5594 27.8449C38.5594 27.0562 38.8384 26.3829 39.3965 25.8248C39.9545 25.2668 40.6278 24.9878 41.4165 24.9878C42.2052 24.9878 42.8786 25.2668 43.4366 25.8248Z" fill="#355C7D"/>
</g>
</g>
<defs>
<filter id="filter0_d_19_96" x="0.988037" y="0.987793" width="68" height="69" filterUnits="userSpaceOnUse" color-interpolation-filters="sRGB">
<feFlood flood-opacity="0" result="BackgroundImageFix"/>
<feColorMatrix in="SourceAlpha" type="matrix" values="0 0 0 0 0 0 0 0 0 0 0 0 0 0 0 0 0 0 127 0" result="hardAlpha"/>
<feOffset dy="2"/>
<feGaussianBlur stdDeviation="0.5"/>
<feComposite in2="hardAlpha" operator="out"/>
<feColorMatrix type="matrix" values="0 0 0 0 0.137255 0 0 0 0 0.247059 0 0 0 0 0.341176 0 0 0 1 0"/>
<feBlend mode="normal" in2="BackgroundImageFix" result="effect1_dropShadow_19_96"/>
<feBlend mode="normal" in="SourceGraphic" in2="effect1_dropShadow_19_96" result="shape"/>
</filter>
<clipPath id="clip0_19_96">
<rect width="21.44" height="20" fill="white" transform="matrix(1 0 0 -1 24.2681 44.9878)"/>
</clipPath>
</defs>
</svg>
