<svg width="69" height="70" viewBox="0 0 69 70" fill="none" xmlns="http://www.w3.org/2000/svg">
<g filter="url(#filter0_d_19_111)">
<rect x="1.82812" y="0.987793" width="66" height="66" rx="33" fill="white" shape-rendering="crispEdges"/>
<rect x="2.32812" y="1.48779" width="65" height="65" rx="32.5" stroke="#EDEDED" shape-rendering="crispEdges"/>
<g clip-path="url(#clip0_19_111)">
<path d="M43.8248 30.3227C44.1225 30.7468 44.1894 31.2267 44.0257 31.7625L40.9565 41.8741C40.8152 42.3502 40.5306 42.7502 40.1027 43.0738C39.6749 43.3975 39.2192 43.5593 38.7356 43.5593H28.4342C27.8613 43.5593 27.3088 43.3603 26.7769 42.9622C26.2449 42.5642 25.8747 42.075 25.6664 41.4946C25.4878 40.9961 25.4804 40.5236 25.644 40.0772C25.644 40.0474 25.6552 39.947 25.6775 39.7758C25.6998 39.6047 25.7147 39.4671 25.7222 39.3629C25.7296 39.3034 25.7184 39.2234 25.6887 39.1229C25.6589 39.0225 25.6478 38.95 25.6552 38.9053C25.6701 38.8235 25.6998 38.7453 25.7445 38.6709C25.7891 38.5965 25.8505 38.5091 25.9286 38.4087C26.0068 38.3082 26.0681 38.2208 26.1128 38.1464C26.2839 37.8636 26.4513 37.5232 26.615 37.1252C26.7787 36.7271 26.8903 36.3867 26.9498 36.104C26.9722 36.0296 26.974 35.918 26.9554 35.7691C26.9368 35.6203 26.935 35.5162 26.9498 35.4566C26.9722 35.3748 27.0354 35.2706 27.1396 35.1441C27.2437 35.0177 27.307 34.9321 27.3293 34.8875C27.4856 34.6196 27.6418 34.2773 27.7981 33.8607C27.9543 33.444 28.0473 33.1092 28.0771 32.8562C28.0845 32.7892 28.0752 32.6702 28.0492 32.4991C28.0231 32.3279 28.025 32.2238 28.0548 32.1866C28.0845 32.0898 28.1664 31.9764 28.3003 31.8462C28.4342 31.7159 28.5161 31.6322 28.5458 31.595C28.6872 31.4016 28.8453 31.0872 29.0202 30.652C29.195 30.2167 29.2973 29.8577 29.3271 29.575C29.3345 29.5154 29.3234 29.4206 29.2936 29.2904C29.2638 29.1601 29.2564 29.0616 29.2713 28.9946C29.2862 28.9351 29.3196 28.8681 29.3717 28.7937C29.4238 28.7193 29.4908 28.6337 29.5726 28.537C29.6545 28.4403 29.7177 28.3622 29.7623 28.3026C29.8219 28.2133 29.8833 28.0999 29.9465 27.9622C30.0097 27.8246 30.0655 27.6944 30.1139 27.5716C30.1623 27.4488 30.2218 27.3149 30.2925 27.1698C30.3632 27.0247 30.4357 26.9057 30.5101 26.8127C30.5845 26.7197 30.6831 26.6322 30.8059 26.5504C30.9286 26.4686 31.0626 26.4258 31.2077 26.4221C31.3527 26.4183 31.5295 26.4388 31.7378 26.4834L31.7266 26.5169C32.0094 26.45 32.1991 26.4165 32.2958 26.4165H40.7891C41.3397 26.4165 41.7638 26.6248 42.0615 27.0415C42.3591 27.4581 42.426 27.9418 42.2623 28.4924L39.2043 38.604C38.9365 39.4894 38.6705 40.0604 38.4063 40.3171C38.1422 40.5738 37.6641 40.7022 36.9722 40.7022H27.2735C27.0726 40.7022 26.9312 40.758 26.8494 40.8696C26.7676 40.9886 26.7638 41.1486 26.8382 41.3495C27.0168 41.8703 27.5525 42.1308 28.4454 42.1308H38.7467C38.9625 42.1308 39.1708 42.0731 39.3717 41.9578C39.5726 41.8424 39.7028 41.688 39.7623 41.4946L43.1106 30.479C43.1626 30.3153 43.1812 30.1032 43.1664 29.8428C43.4491 29.9544 43.6686 30.1144 43.8248 30.3227ZM31.9498 30.345C31.9201 30.4418 31.9275 30.5255 31.9722 30.5962C32.0168 30.6668 32.0912 30.7022 32.1954 30.7022H38.9811C39.0778 30.7022 39.1727 30.6668 39.2657 30.5962C39.3587 30.5255 39.4201 30.4418 39.4498 30.345L39.6842 29.6308C39.714 29.534 39.7065 29.4503 39.6619 29.3796C39.6173 29.309 39.5429 29.2736 39.4387 29.2736H32.653C32.5562 29.2736 32.4614 29.309 32.3684 29.3796C32.2754 29.4503 32.214 29.534 32.1842 29.6308L31.9498 30.345ZM31.0235 33.2022C30.9937 33.2989 31.0012 33.3826 31.0458 33.4533C31.0905 33.524 31.1649 33.5593 31.269 33.5593H38.0548C38.1515 33.5593 38.2463 33.524 38.3394 33.4533C38.4324 33.3826 38.4937 33.2989 38.5235 33.2022L38.7579 32.4879C38.7876 32.3912 38.7802 32.3075 38.7356 32.2368C38.6909 32.1661 38.6165 32.1308 38.5123 32.1308H31.7266C31.6299 32.1308 31.535 32.1661 31.442 32.2368C31.349 32.3075 31.2876 32.3912 31.2579 32.4879L31.0235 33.2022Z" fill="#355C7D"/>
</g>
</g>
<defs>
<filter id="filter0_d_19_111" x="0.828125" y="0.987793" width="68" height="69" filterUnits="userSpaceOnUse" color-interpolation-filters="sRGB">
<feFlood flood-opacity="0" result="BackgroundImageFix"/>
<feColorMatrix in="SourceAlpha" type="matrix" values="0 0 0 0 0 0 0 0 0 0 0 0 0 0 0 0 0 0 127 0" result="hardAlpha"/>
<feOffset dy="2"/>
<feGaussianBlur stdDeviation="0.5"/>
<feComposite in2="hardAlpha" operator="out"/>
<feColorMatrix type="matrix" values="0 0 0 0 0.137255 0 0 0 0 0.247059 0 0 0 0 0.341176 0 0 0 1 0"/>
<feBlend mode="normal" in2="BackgroundImageFix" result="effect1_dropShadow_19_111"/>
<feBlend mode="normal" in="SourceGraphic" in2="effect1_dropShadow_19_111" result="shape"/>
</filter>
<clipPath id="clip0_19_111">
<rect width="18.58" height="20" fill="white" transform="matrix(1 0 0 -1 25.5281 44.9878)"/>
</clipPath>
</defs>
</svg>
