<svg width="69" height="70" viewBox="0 0 69 70" fill="none" xmlns="http://www.w3.org/2000/svg">
<g filter="url(#filter0_d_19_101)">
<rect x="1.26807" y="0.987793" width="66" height="66" rx="33" fill="white" shape-rendering="crispEdges"/>
<rect x="1.76807" y="1.48779" width="65" height="65" rx="32.5" stroke="#EDEDED" shape-rendering="crispEdges"/>
<g clip-path="url(#clip0_19_101)">
<path d="M30.084 34.8428C29.5334 33.6375 29.2581 32.2572 29.2581 30.7022H26.401V31.7736C26.401 32.354 26.7525 32.9566 27.4557 33.5816C28.1588 34.2066 29.0349 34.627 30.084 34.8428ZM42.1153 31.7736V30.7022H39.2581C39.2581 32.2572 38.9828 33.6375 38.4322 34.8428C39.4813 34.627 40.3575 34.2066 41.0606 33.5816C41.7637 32.9566 42.1153 32.354 42.1153 31.7736ZM43.5438 30.345V31.7736C43.5438 32.3019 43.3895 32.8339 43.0807 33.3696C42.7719 33.9053 42.3552 34.3889 41.8307 34.8205C41.3061 35.252 40.6625 35.6148 39.8999 35.9087C39.1372 36.2026 38.3355 36.3681 37.4947 36.4053C37.1822 36.8071 36.8288 37.1605 36.4345 37.4656C36.1517 37.7186 35.9564 37.9883 35.8485 38.2747C35.7406 38.5612 35.6867 38.8941 35.6867 39.2736C35.6867 39.6754 35.8002 40.0139 36.0271 40.2892C36.254 40.5645 36.6168 40.7022 37.1153 40.7022C37.6733 40.7022 38.17 40.8715 38.6052 41.21C39.0405 41.5485 39.2581 41.9745 39.2581 42.4879V43.2022C39.2581 43.3063 39.2246 43.3919 39.1577 43.4589C39.0907 43.5258 39.0052 43.5593 38.901 43.5593H29.6153C29.5111 43.5593 29.4255 43.5258 29.3586 43.4589C29.2916 43.3919 29.2581 43.3063 29.2581 43.2022V42.4879C29.2581 41.9745 29.4758 41.5485 29.911 41.21C30.3463 40.8715 30.8429 40.7022 31.401 40.7022C31.8995 40.7022 32.2622 40.5645 32.4892 40.2892C32.7161 40.0139 32.8296 39.6754 32.8296 39.2736C32.8296 38.8941 32.7756 38.5612 32.6677 38.2747C32.5598 37.9883 32.3645 37.7186 32.0818 37.4656C31.6874 37.1605 31.334 36.8071 31.0215 36.4053C30.1807 36.3681 29.379 36.2026 28.6164 35.9087C27.8537 35.6148 27.2101 35.252 26.6856 34.8205C26.161 34.3889 25.7444 33.9053 25.4356 33.3696C25.1268 32.8339 24.9724 32.3019 24.9724 31.7736V30.345C24.9724 30.0474 25.0766 29.7944 25.2849 29.5861C25.4932 29.3778 25.7462 29.2736 26.0438 29.2736H29.2581V28.2022C29.2581 27.7111 29.433 27.2907 29.7827 26.941C30.1324 26.5913 30.5528 26.4165 31.0438 26.4165H37.4724C37.9635 26.4165 38.3839 26.5913 38.7336 26.941C39.0833 27.2907 39.2581 27.7111 39.2581 28.2022V29.2736H42.4724C42.77 29.2736 43.023 29.3778 43.2313 29.5861C43.4397 29.7944 43.5438 30.0474 43.5438 30.345Z" fill="#355C7D"/>
</g>
</g>
<defs>
<filter id="filter0_d_19_101" x="0.268066" y="0.987793" width="68" height="69" filterUnits="userSpaceOnUse" color-interpolation-filters="sRGB">
<feFlood flood-opacity="0" result="BackgroundImageFix"/>
<feColorMatrix in="SourceAlpha" type="matrix" values="0 0 0 0 0 0 0 0 0 0 0 0 0 0 0 0 0 0 127 0" result="hardAlpha"/>
<feOffset dy="2"/>
<feGaussianBlur stdDeviation="0.5"/>
<feComposite in2="hardAlpha" operator="out"/>
<feColorMatrix type="matrix" values="0 0 0 0 0.137255 0 0 0 0 0.247059 0 0 0 0 0.341176 0 0 0 1 0"/>
<feBlend mode="normal" in2="BackgroundImageFix" result="effect1_dropShadow_19_101"/>
<feBlend mode="normal" in="SourceGraphic" in2="effect1_dropShadow_19_101" result="shape"/>
</filter>
<clipPath id="clip0_19_101">
<rect width="18.58" height="20" fill="white" transform="matrix(1 0 0 -1 24.968 44.9878)"/>
</clipPath>
</defs>
</svg>
