<svg width="69" height="70" viewBox="0 0 69 70" fill="none" xmlns="http://www.w3.org/2000/svg">
<g filter="url(#filter0_d_19_106)">
<rect x="1.54785" y="0.987793" width="66" height="66" rx="33" fill="white" shape-rendering="crispEdges"/>
<rect x="2.04785" y="1.48779" width="65" height="65" rx="32.5" stroke="#EDEDED" shape-rendering="crispEdges"/>
<g clip-path="url(#clip0_19_106)">
<path d="M28.1193 27.845C28.1193 28.3808 27.8813 28.79 27.4051 29.0727V43.2022C27.4051 43.2989 27.3697 43.3826 27.299 43.4533C27.2284 43.524 27.1446 43.5593 27.0479 43.5593H26.3336C26.2369 43.5593 26.1532 43.524 26.0825 43.4533C26.0118 43.3826 25.9765 43.2989 25.9765 43.2022V29.0727C25.5003 28.79 25.2622 28.3808 25.2622 27.845C25.2622 27.4507 25.4017 27.114 25.6807 26.835C25.9598 26.556 26.2964 26.4165 26.6908 26.4165C27.0851 26.4165 27.4218 26.556 27.7008 26.835C27.9798 27.114 28.1193 27.4507 28.1193 27.845ZM44.5479 28.5593V37.075C44.5479 37.261 44.5014 37.4042 44.4084 37.5046C44.3154 37.6051 44.1685 37.7074 43.9676 37.8116C42.3679 38.6747 40.9951 39.1062 39.8493 39.1062C39.3954 39.1062 38.9359 39.0244 38.4709 38.8607C38.0059 38.697 37.6022 38.5184 37.26 38.325C36.9177 38.1315 36.488 37.9529 35.9709 37.7892C35.4538 37.6255 34.9237 37.5437 34.3805 37.5437C32.9519 37.5437 31.2257 38.0869 29.2019 39.1732C29.0755 39.2401 28.9527 39.2736 28.8336 39.2736C28.6402 39.2736 28.4728 39.2029 28.3314 39.0616C28.19 38.9202 28.1193 38.7528 28.1193 38.5593V30.2781C28.1193 30.04 28.2347 29.8354 28.4653 29.6642C28.6216 29.5601 28.9155 29.4001 29.347 29.1843C31.103 28.2915 32.6692 27.845 34.0457 27.845C34.8418 27.845 35.5859 27.9529 36.2778 28.1687C36.9698 28.3845 37.7845 28.7119 38.722 29.1508C39.0048 29.2922 39.3321 29.3629 39.7042 29.3629C40.106 29.3629 40.5431 29.2848 41.0156 29.1285C41.488 28.9723 41.8973 28.7974 42.2432 28.604C42.5892 28.4105 42.9166 28.2357 43.2254 28.0794C43.5342 27.9232 43.7369 27.845 43.8336 27.845C44.0271 27.845 44.1945 27.9157 44.3359 28.0571C44.4772 28.1985 44.5479 28.3659 44.5479 28.5593Z" fill="#355C7D"/>
</g>
</g>
<defs>
<filter id="filter0_d_19_106" x="0.547852" y="0.987793" width="68" height="69" filterUnits="userSpaceOnUse" color-interpolation-filters="sRGB">
<feFlood flood-opacity="0" result="BackgroundImageFix"/>
<feColorMatrix in="SourceAlpha" type="matrix" values="0 0 0 0 0 0 0 0 0 0 0 0 0 0 0 0 0 0 127 0" result="hardAlpha"/>
<feOffset dy="2"/>
<feGaussianBlur stdDeviation="0.5"/>
<feComposite in2="hardAlpha" operator="out"/>
<feColorMatrix type="matrix" values="0 0 0 0 0.137255 0 0 0 0 0.247059 0 0 0 0 0.341176 0 0 0 1 0"/>
<feBlend mode="normal" in2="BackgroundImageFix" result="effect1_dropShadow_19_106"/>
<feBlend mode="normal" in="SourceGraphic" in2="effect1_dropShadow_19_106" result="shape"/>
</filter>
<clipPath id="clip0_19_106">
<rect width="20" height="20" fill="white" transform="matrix(1 0 0 -1 24.5479 44.9878)"/>
</clipPath>
</defs>
</svg>
